<svg width="223" height="34" viewBox="0 0 223 34" fill="none" xmlns="http://www.w3.org/2000/svg">
<path d="M8.83 9.745C13.555 9.745 17.23 13.56 17.23 18.53C17.23 23.535 13.59 27.35 8.83 27.35C5.82 27.35 3.265 25.88 2.005 23.71V32.775C2.005 33.3 1.62 33.685 1.13 33.685C0.64 33.685 0.255 33.265 0.255 32.775V10.62C0.255 10.095 0.64 9.71 1.13 9.71C1.62 9.71 2.005 10.095 2.005 10.62V13.385C3.265 11.215 5.82 9.745 8.83 9.745ZM8.655 25.705C12.54 25.705 15.41 22.66 15.41 18.565C15.41 14.435 12.505 11.39 8.655 11.39C4.665 11.39 2.005 14.26 2.005 18.53C2.005 22.835 4.665 25.705 8.655 25.705ZM23.3126 27.35C22.8226 27.35 22.4376 26.965 22.4376 26.475V1.275C22.4376 0.785 22.8226 0.399998 23.3126 0.399998C23.8026 0.399998 24.1876 0.785 24.1876 1.275V26.475C24.1876 26.965 23.8376 27.35 23.3126 27.35ZM38.1641 9.745C43.0291 9.745 46.9141 13.595 46.9141 18.53C46.9141 23.465 43.0291 27.35 38.1291 27.35C33.2641 27.35 29.4141 23.465 29.4141 18.53C29.4141 13.56 33.2641 9.745 38.1641 9.745ZM38.1641 11.39C34.2091 11.39 31.2341 14.47 31.2341 18.565C31.2341 22.625 34.2091 25.705 38.1291 25.705C42.0491 25.705 45.0941 22.59 45.0941 18.565C45.0941 14.47 42.0491 11.39 38.1641 11.39ZM64.6512 9.745C65.1062 9.745 65.5262 10.13 65.5262 10.62C65.5262 10.76 65.4912 10.9 65.4212 11.005L58.2462 26.79C58.0712 27.14 57.7912 27.35 57.4412 27.35C57.0562 27.35 56.7762 27.14 56.6012 26.79L49.4612 11.04C49.3912 10.9 49.3562 10.76 49.3562 10.62C49.3562 10.13 49.7762 9.745 50.2312 9.745C50.6162 9.745 50.9312 9.99 51.1062 10.34L57.4412 24.55L63.7762 10.34C63.9512 9.99 64.2312 9.745 64.6512 9.745ZM88.0074 9.745C91.6824 9.745 94.0274 12.265 94.0274 16.325V26.475C94.0274 26.965 93.6424 27.35 93.1524 27.35C92.6274 27.35 92.2424 26.965 92.2424 26.475V16.465C92.2424 13.35 90.4924 11.39 87.7624 11.39C84.9974 11.39 82.8624 13.455 82.8624 16.185V26.475C82.8624 26.965 82.4774 27.35 81.9874 27.35C81.4974 27.35 81.1124 26.965 81.1124 26.475V16.465C81.1124 13.385 79.3274 11.39 76.5974 11.39C73.7274 11.39 71.6974 13.49 71.6974 16.465V26.475C71.6974 26.965 71.3124 27.35 70.8224 27.35C70.3324 27.35 69.9474 26.965 69.9474 26.475V10.62C69.9474 10.13 70.3324 9.745 70.8224 9.745C71.3124 9.745 71.6974 10.13 71.6974 10.62V12.23C72.8174 10.655 74.6374 9.745 76.8424 9.745C79.3974 9.745 81.2874 10.935 82.1624 13.035C83.2824 11.005 85.4524 9.745 88.0074 9.745ZM107.44 9.745C111.885 9.745 115.07 12.965 115.07 17.41V17.83C115.07 18.565 114.72 18.985 113.985 18.985H100.79C101 22.87 103.87 25.705 107.755 25.705C109.715 25.705 111.605 24.9 112.9 23.535C113.145 23.29 113.32 23.185 113.565 23.185C114.02 23.185 114.335 23.535 114.335 23.99C114.335 24.27 114.23 24.48 113.915 24.795C112.235 26.475 110.135 27.35 107.755 27.35C102.785 27.35 98.9698 23.5 98.9698 18.565C98.9698 13.595 102.715 9.745 107.44 9.745ZM107.44 11.355C104.01 11.355 101.35 13.91 100.86 17.375H113.285C113.32 13.91 110.94 11.355 107.44 11.355ZM121.764 27.385C120.574 27.385 119.559 26.405 119.559 25.18C119.559 23.955 120.574 22.975 121.764 22.975C122.954 22.975 123.969 23.955 123.969 25.18C123.969 26.405 122.954 27.385 121.764 27.385ZM130.988 1.03C132.318 1.03 133.438 2.08 133.438 3.41C133.438 4.74 132.318 5.79 130.988 5.79C129.623 5.79 128.538 4.74 128.538 3.41C128.538 2.08 129.623 1.03 130.988 1.03ZM130.953 27.385C129.903 27.385 129.133 26.58 129.133 25.495V11.32C129.133 10.235 129.903 9.43 130.988 9.43C132.038 9.43 132.808 10.235 132.808 11.32V25.495C132.808 26.58 132.003 27.385 130.953 27.385ZM146.697 9.43C150.617 9.43 153.137 12.09 153.137 16.255V25.495C153.137 26.615 152.332 27.385 151.317 27.385C150.232 27.385 149.462 26.58 149.462 25.495V16.745C149.462 14.365 147.957 12.755 145.717 12.755C143.442 12.755 141.797 14.435 141.797 16.745V25.495C141.797 26.615 141.027 27.385 139.977 27.385C138.927 27.385 138.122 26.58 138.122 25.495V11.32C138.122 10.235 138.892 9.43 139.977 9.43C140.992 9.43 141.762 10.235 141.762 11.32C142.987 10.13 144.702 9.43 146.697 9.43ZM171.5 9.43C172.48 9.43 173.285 10.27 173.285 11.215C173.285 11.53 173.215 11.81 173.075 12.16L166.215 26.265C165.865 26.965 165.235 27.385 164.535 27.385C163.8 27.385 163.17 26.965 162.82 26.265L155.995 12.16C155.82 11.81 155.75 11.53 155.75 11.215C155.75 10.27 156.555 9.43 157.535 9.43C158.27 9.43 158.865 9.815 159.215 10.515L164.535 21.715L169.82 10.515C170.17 9.815 170.765 9.43 171.5 9.43ZM183.866 9.43C188.451 9.43 191.846 12.79 191.846 17.41V17.585C191.846 18.845 191.041 19.615 189.746 19.615H178.756C179.246 22.38 181.311 24.13 184.356 24.13C185.826 24.13 187.226 23.675 188.381 22.8C188.696 22.59 189.011 22.45 189.326 22.45C190.201 22.45 190.866 23.115 190.866 23.99C190.866 24.62 190.621 25.04 189.956 25.53C188.311 26.755 186.386 27.385 184.251 27.385C178.931 27.385 175.011 23.57 175.011 18.425C175.011 13.35 178.861 9.43 183.866 9.43ZM183.761 12.545C181.276 12.545 179.386 14.225 178.826 16.745H188.171C188.101 14.26 186.351 12.545 183.761 12.545ZM201.376 27.385C198.716 27.385 196.546 26.3 195.076 24.725C194.726 24.41 194.551 24.025 194.551 23.535C194.551 22.66 195.286 21.925 196.196 21.925C196.581 21.925 196.966 22.065 197.351 22.415C198.436 23.43 199.731 24.2 201.376 24.2C202.881 24.2 204.141 23.57 204.141 22.275C204.141 21.155 203.126 20.7 201.726 20.14L199.976 19.405C197.211 18.25 195.496 16.99 195.496 14.4C195.496 11.215 198.156 9.43 201.551 9.43C203.756 9.43 205.681 10.235 207.011 11.53C207.396 11.88 207.571 12.3 207.571 12.755C207.571 13.63 206.871 14.33 206.031 14.33C205.646 14.33 205.331 14.155 204.876 13.805C203.966 13.105 202.776 12.615 201.481 12.615C200.116 12.615 199.136 13.14 199.136 14.26C199.136 15.205 199.836 15.66 201.411 16.29L203.056 16.955C206.171 18.25 207.746 19.615 207.746 22.135C207.746 25.6 204.806 27.385 201.376 27.385ZM220.944 24.025C221.924 24.025 222.554 24.62 222.554 25.495C222.554 26.265 222.169 26.79 221.469 27.035C220.874 27.28 220.139 27.385 219.159 27.385C215.064 27.385 212.824 25.285 212.824 21.4V13H211.459C210.549 13 209.814 12.335 209.814 11.425C209.814 10.515 210.549 9.815 211.459 9.815H212.824V6.805C212.824 5.755 213.629 4.915 214.679 4.915C215.729 4.915 216.534 5.72 216.534 6.805V9.815H220.209C221.154 9.815 221.854 10.515 221.854 11.425C221.854 12.335 221.154 13 220.209 13H216.534V21.085C216.534 23.185 217.549 24.06 219.894 24.06C220.314 24.06 220.629 24.025 220.944 24.025Z" fill="black"/>
</svg>
