<svg width="35" height="35" viewBox="0 0 35 35" fill="none" xmlns="http://www.w3.org/2000/svg">
<path d="M26.32 11.4545H9.52C9.29722 11.4545 9.08356 11.3636 8.92603 11.2016C8.7685 11.0396 8.68 10.82 8.68 10.5909C8.68 10.3619 8.7685 10.1422 8.92603 9.98023C9.08356 9.81826 9.29722 9.72727 9.52 9.72727H23.8C24.0228 9.72727 24.2364 9.63628 24.394 9.47432C24.5515 9.31236 24.64 9.09269 24.64 8.86364C24.64 8.63459 24.5515 8.41492 24.394 8.25295C24.2364 8.09099 24.0228 8 23.8 8H9.52C8.85189 8.00079 8.21136 8.27401 7.73893 8.75973C7.26651 9.24545 7.00076 9.904 7 10.5909V24.4091C7.00076 25.096 7.26651 25.7546 7.73893 26.2403C8.21136 26.726 8.85189 26.9992 9.52 27H26.32C26.7654 26.9995 27.1924 26.8173 27.5074 26.4935C27.8223 26.1697 27.9995 25.7307 28 25.2727V13.1818C27.9995 12.7239 27.8223 12.2848 27.5074 11.961C27.1924 11.6372 26.7654 11.4551 26.32 11.4545ZM22.54 20.5227C22.2908 20.5227 22.0472 20.4467 21.84 20.3044C21.6328 20.1621 21.4713 19.9597 21.3759 19.723C21.2805 19.4863 21.2556 19.2258 21.3042 18.9745C21.3528 18.7232 21.4728 18.4924 21.649 18.3112C21.8253 18.1301 22.0498 18.0067 22.2942 17.9567C22.5386 17.9067 22.7919 17.9324 23.0222 18.0304C23.2524 18.1285 23.4492 18.2945 23.5877 18.5076C23.7261 18.7206 23.8 18.9711 23.8 19.2273C23.8 19.5708 23.6672 19.9004 23.431 20.1433C23.1947 20.3862 22.8742 20.5227 22.54 20.5227Z" fill="#FF8A00"/>
</svg>
