<svg width="25" height="24" viewBox="0 0 25 24" fill="none" xmlns="http://www.w3.org/2000/svg">
<path d="M13.5153 7.92295C13.5153 8.46996 13.9588 8.9134 14.5058 8.9134C15.0528 8.9134 15.4962 8.46996 15.4962 7.92295V6.9325H20.4485C20.9955 6.9325 21.4389 6.48906 21.4389 5.94205C21.4389 5.39504 20.9955 4.9516 20.4485 4.9516H15.4962V3.96115C15.4962 3.41414 15.0528 2.9707 14.5058 2.9707C13.9588 2.9707 13.5153 3.41414 13.5153 3.96115V7.92295Z" fill="#667085"/>
<path d="M3.61084 11.8848C3.61084 11.3377 4.05428 10.8943 4.60129 10.8943H6.08696C6.36047 10.8943 6.58219 11.116 6.58219 11.3895V12.38C6.58219 12.6535 6.36047 12.8752 6.08696 12.8752H4.60129C4.05428 12.8752 3.61084 12.4318 3.61084 11.8848Z" fill="#667085"/>
<path d="M9.55354 8.9134C9.00653 8.9134 8.56309 9.35684 8.56309 9.90385V13.8657C8.56309 14.4127 9.00653 14.8561 9.55354 14.8561C10.1005 14.8561 10.544 14.4127 10.544 13.8657V12.8752H20.4485C20.9955 12.8752 21.4389 12.4318 21.4389 11.8848C21.4389 11.3377 20.9955 10.8943 20.4485 10.8943H10.544V9.90385C10.544 9.35684 10.1005 8.9134 9.55354 8.9134Z" fill="#667085"/>
<path d="M3.61084 5.94205C3.61084 5.39504 4.05428 4.9516 4.60129 4.9516H11.0392C11.3127 4.9516 11.5344 5.17332 11.5344 5.44683V6.43728C11.5344 6.71078 11.3127 6.9325 11.0392 6.9325H4.60129C4.05428 6.9325 3.61084 6.48906 3.61084 5.94205Z" fill="#667085"/>
<path d="M15.4962 15.8465C15.4962 15.2995 15.9397 14.8561 16.4867 14.8561C17.0337 14.8561 17.4771 15.2995 17.4771 15.8465V16.837H20.4485C20.9955 16.837 21.4389 17.2804 21.4389 17.8274C21.4389 18.3745 20.9955 18.8179 20.4485 18.8179H17.4771V19.8083C17.4771 20.3554 17.0337 20.7988 16.4867 20.7988C15.9397 20.7988 15.4962 20.3554 15.4962 19.8083V15.8465Z" fill="#667085"/>
<path d="M3.61084 17.8274C3.61084 17.2804 4.05428 16.837 4.60129 16.837H13.0201C13.2936 16.837 13.5153 17.0587 13.5153 17.3322V18.3227C13.5153 18.5962 13.2936 18.8179 13.0201 18.8179H4.60129C4.05428 18.8179 3.61084 18.3745 3.61084 17.8274Z" fill="#667085"/>
</svg>
