<svg width="35" height="35" viewBox="0 0 35 35" fill="none" xmlns="http://www.w3.org/2000/svg">
<path d="M29.9998 11.5C29.9998 9.56699 28.4328 8 26.4998 8H10.5001C8.56716 8 7.00016 9.56698 7.00015 11.5L7.00003 24.5C7.00001 26.433 8.56702 28 10.5 28H26.4999C28.433 28 30 26.433 29.9999 24.5L29.9998 11.5ZM24.7903 15.1647L21.1908 18.1059C20.4318 18.7294 19.4658 19.0353 18.4998 19.0353C17.5338 19.0353 16.5563 18.7294 15.8088 18.1059L12.2093 15.1647C11.8413 14.8588 11.7838 14.2941 12.0713 13.9177C12.3703 13.5412 12.9108 13.4706 13.2788 13.7765L16.8783 16.7177C17.7523 17.4353 19.2358 17.4353 20.1098 16.7177L23.7093 13.7765C24.0773 13.4706 24.6293 13.5294 24.9168 13.9177C25.2158 14.2941 25.1583 14.8588 24.7903 15.1647Z" fill="#FF8A00"/>
</svg>
