<svg width="35" height="35" viewBox="0 0 35 35" fill="none" xmlns="http://www.w3.org/2000/svg">
<path fill-rule="evenodd" clip-rule="evenodd" d="M7 10.5C7 9.57174 7.36875 8.6815 8.02513 8.02513C8.6815 7.36875 9.57174 7 10.5 7H24.5C25.4283 7 26.3185 7.36875 26.9749 8.02513C27.6313 8.6815 28 9.57174 28 10.5V24.5C28 25.4283 27.6313 26.3185 26.9749 26.9749C26.3185 27.6313 25.4283 28 24.5 28H10.5C9.57174 28 8.6815 27.6313 8.02513 26.9749C7.36875 26.3185 7 25.4283 7 24.5V10.5ZM18.6667 12.8333C18.6667 12.5239 18.5438 12.2272 18.325 12.0084C18.1062 11.7896 17.8094 11.6667 17.5 11.6667C17.1906 11.6667 16.8938 11.7896 16.675 12.0084C16.4563 12.2272 16.3333 12.5239 16.3333 12.8333V22.1667C16.3333 22.4761 16.4563 22.7728 16.675 22.9916C16.8938 23.2104 17.1906 23.3333 17.5 23.3333C17.8094 23.3333 18.1062 23.2104 18.325 22.9916C18.5438 22.7728 18.6667 22.4761 18.6667 22.1667V12.8333ZM14 16.3333C14 16.0239 13.8771 15.7272 13.6583 15.5084C13.4395 15.2896 13.1428 15.1667 12.8333 15.1667C12.5239 15.1667 12.2272 15.2896 12.0084 15.5084C11.7896 15.7272 11.6667 16.0239 11.6667 16.3333V22.1667C11.6667 22.4761 11.7896 22.7728 12.0084 22.9916C12.2272 23.2104 12.5239 23.3333 12.8333 23.3333C13.1428 23.3333 13.4395 23.2104 13.6583 22.9916C13.8771 22.7728 14 22.4761 14 22.1667V16.3333ZM23.3333 19.8333C23.3333 19.5239 23.2104 19.2272 22.9916 19.0084C22.7728 18.7896 22.4761 18.6667 22.1667 18.6667C21.8572 18.6667 21.5605 18.7896 21.3417 19.0084C21.1229 19.2272 21 19.5239 21 19.8333V22.1667C21 22.4761 21.1229 22.7728 21.3417 22.9916C21.5605 23.2104 21.8572 23.3333 22.1667 23.3333C22.4761 23.3333 22.7728 23.2104 22.9916 22.9916C23.2104 22.7728 23.3333 22.4761 23.3333 22.1667V19.8333Z" fill="#FF8A00"/>
</svg>
