
    <svg
      width="20"
      height="20"
      viewBox="0 0 20 20"
      fill="none"
      xmlns="http://www.w3.org/2000/svg"
    >
      <path
        d="M6 7.35294H6.01M10 7.35294H10.01M14 7.35294H14.01M7 13.7059H3C2.46957 13.7059 1.96086 13.4828 1.58579 13.0856C1.21071 12.6885 1 12.1499 1 11.5882V3.11765C1 2.55601 1.21071 2.01738 1.58579 1.62024C1.96086 1.22311 2.46957 1 3 1H17C17.5304 1 18.0391 1.22311 18.4142 1.62024C18.7893 2.01738 19 2.55601 19 3.11765V11.5882C19 12.1499 18.7893 12.6885 18.4142 13.0856C18.0391 13.4828 17.5304 13.7059 17 13.7059H12L7 19V13.7059Z"
        stroke="#121212"
        stroke-width="2"
        stroke-linecap="round"
        stroke-linejoin="round"
      />
    </svg>

