<svg width="35" height="35" viewBox="0 0 35 35" fill="none" xmlns="http://www.w3.org/2000/svg">
<path fill-rule="evenodd" clip-rule="evenodd" d="M23.4859 18C25.3405 18 26.8322 16.4 26.8322 14.4285C26.8322 12.4571 25.3405 10.8571 23.4859 10.8571C21.6313 10.8571 20.1262 12.4571 20.1262 14.4285C20.1262 16.4 21.6313 18 23.4859 18ZM13.4066 16.5714C15.6375 16.5714 17.4249 14.6571 17.4249 12.2857C17.4249 9.91429 15.6375 8 13.4066 8C11.1758 8 9.37494 9.91429 9.37494 12.2857C9.37494 14.6571 11.1758 16.5714 13.4066 16.5714ZM23.6086 20.5C21.1493 20.5 16.2172 21.8143 16.2172 24.4286V27.6429H31V24.4286C31 21.8143 26.068 20.5 23.6086 20.5ZM13.4072 19.4286C10.276 19.4286 4 21.1 4 24.4286V28H13.4072V24.7857C13.4072 23.5714 13.8507 21.4429 16.5923 19.8286C15.4231 19.5714 14.2942 19.4286 13.4072 19.4286Z" fill="white"/>
</svg>
